<?xml version="1.0" standalone="no"?>
<!DOCTYPE svg PUBLIC "-//W3C//DTD SVG 20010904//EN"
 "http://www.w3.org/TR/2001/REC-SVG-20010904/DTD/svg10.dtd">
<svg version="1.0" xmlns="http://www.w3.org/2000/svg"
 width="700.000000pt" height="700.000000pt" viewBox="0 0 700.000000 700.000000"
 preserveAspectRatio="xMidYMid meet">
<metadata>
Created by potrace 1.14, written by Peter Selinger 2001-2017
</metadata>
<g transform="translate(0.000000,700.000000) scale(0.100000,-0.100000)"
fill="#000000" stroke="none">
<path d="M3345 5843 c-510 -48 -916 -206 -1284 -501 -124 -99 -286 -262 -356
-357 -17 -22 -33 -42 -36 -45 -30 -25 -191 -288 -232 -380 -14 -30 -34 -75
-45 -100 -52 -115 -105 -284 -92 -288 6 -2 -20 -27 -57 -54 -198 -148 -380
-370 -493 -603 -167 -343 -207 -738 -115 -1111 70 -281 221 -549 424 -753 152
-153 262 -234 433 -319 94 -47 276 -114 345 -127 16 -3 66 -13 113 -22 73 -14
188 -17 810 -21 1235 -7 2081 -6 2170 2 431 39 848 265 1119 605 90 114 141
194 200 315 42 87 103 252 116 313 2 10 8 39 14 64 31 137 43 345 27 499 -26
266 -124 540 -268 753 -100 149 -264 321 -389 409 -52 37 -60 48 -75 97 -102
354 -312 703 -581 966 -381 372 -884 607 -1396 651 -72 6 -308 11 -352 7z
m340 -1023 c121 -18 257 -62 370 -118 74 -37 218 -129 223 -143 2 -5 10 -9 18
-9 18 0 136 -117 195 -195 44 -57 134 -197 130 -203 -1 -1 5 -15 14 -31 44
-86 98 -268 111 -377 4 -32 8 -113 9 -179 2 -66 3 -122 4 -125 1 -3 13 -7 29
-8 234 -17 418 -136 529 -342 49 -90 67 -171 67 -295 -1 -93 -5 -122 -28 -190
-59 -174 -182 -310 -343 -381 -122 -54 -130 -55 -851 -53 -1361 2 -2008 6
-2048 13 -168 28 -354 158 -437 307 -68 122 -82 180 -81 334 1 85 6 125 23
175 65 192 210 339 403 408 59 21 94 26 184 28 114 2 166 -7 262 -45 116 -46
237 -154 303 -269 l30 -52 365 365 c200 200 364 367 364 370 0 8 -41 56 -125
143 -139 145 -292 254 -480 342 -82 39 -233 96 -242 92 -2 0 -17 4 -35 9 -18
5 -46 12 -63 15 -16 3 -31 7 -33 8 -1 2 34 37 78 79 287 266 671 385 1055 327z"/>
</g>
</svg>
