<svg xmlns="http://www.w3.org/2000/svg" class="spritesheet">
  <symbol id="icon-github" viewBox="0 0 24 24">
    <path fill="currentColor" fill-rule="evenodd" d="M12.026 2c-5.509 0-9.974 4.465-9.974 9.974c0 4.406 2.857 8.145 6.821 9.465c.499.09.679-.217.679-.481c0-.237-.008-.865-.011-1.696c-2.775.602-3.361-1.338-3.361-1.338c-.452-1.152-1.107-1.459-1.107-1.459c-.905-.619.069-.605.069-.605c1.002.07 1.527 1.028 1.527 1.028c.89 1.524 2.336 1.084 2.902.829c.091-.645.351-1.085.635-1.334c-2.214-.251-4.542-1.107-4.542-4.93c0-1.087.389-1.979 1.024-2.675c-.101-.253-.446-1.268.099-2.64c0 0 .837-.269 2.742 1.021a9.582 9.582 0 0 1 2.496-.336a9.554 9.554 0 0 1 2.496.336c1.906-1.291 2.742-1.021 2.742-1.021c.545 1.372.203 2.387.099 2.64c.64.696 1.024 1.587 1.024 2.675c0 3.833-2.33 4.675-4.552 4.922c.355.308.675.916.675 1.846c0 1.334-.012 2.41-.012 2.737c0 .267.178.577.687.479C19.146 20.115 22 16.379 22 11.974C22 6.465 17.535 2 12.026 2z" clip-rule="evenodd"/>
  </symbol>

  <symbol id="icon-mastodon" viewBox="0 0 24 24">
    <path fill="currentColor" d="M16 17.24c2.5-.3 4.69-1.84 5-3.25a33.59 33.59 0 0 0 .4-5.42C21.33 4.23 18.48 3 18.48 3A17.64 17.64 0 0 0 12 2a17.64 17.64 0 0 0-6.48 1S2.68 4.23 2.68 8.57v3.44c.1 4.24.78 8.42 4.7 9.46A14.73 14.73 0 0 0 12 22a9.21 9.21 0 0 0 3.54-.81l-.07-1.64A11.41 11.41 0 0 1 12 20c-1.8-.06-3.71-.19-4-2.4a4.26 4.26 0 0 1 0-.63a22.68 22.68 0 0 0 4 .54a23.6 23.6 0 0 0 4-.27zm-6.54-9.8q-1.35 0-1.35 1.62v5.1H6V8.9a3.78 3.78 0 0 1 .82-2.56a2.85 2.85 0 0 1 2.23-1a2.68 2.68 0 0 1 2.4 1.23l.52.87l.52-.87a2.68 2.68 0 0 1 2.4-1.23a2.85 2.85 0 0 1 2.23 1A3.78 3.78 0 0 1 18 8.9v5.26h-2.11v-5.1q0-1.62-1.35-1.62c-1 0-1.51.64-1.51 1.92v2.79H11V9.36c0-1.28-.54-1.92-1.54-1.92z"/>
  </symbol>

  <symbol id="icon-burger" viewBox="0 0 24 24">
    <line x1="3" y1="12" x2="21" y2="12"></line>
    <line x1="3" y1="6" x2="21" y2="6"></line>
    <line x1="3" y1="18" x2="21" y2="18"></line>
  </symbol>

  <symbol id="icon-close" viewBox="0 0 24 24">
    <line x1="18" y1="6" x2="6" y2="18"></line>
    <line x1="6" y1="6" x2="18" y2="18"></line>
  </symbol>

  <symbol id="icon-github" viewBox="0 0 24 24">
    <path d="M12 2C6.475 2 2 6.475 2 12a9.994 9.994 0 0 0 6.838 9.488c.5.087.687-.213.687-.476c0-.237-.013-1.024-.013-1.862c-2.512.463-3.162-.612-3.362-1.175c-.113-.288-.6-1.175-1.025-1.413c-.35-.187-.85-.65-.013-.662c.788-.013 1.35.725 1.538 1.025c.9 1.512 2.338 1.087 2.912.825c.088-.65.35-1.087.638-1.337c-2.225-.25-4.55-1.113-4.55-4.938c0-1.088.387-1.987 1.025-2.688c-.1-.25-.45-1.275.1-2.65c0 0 .837-.262 2.75 1.026a9.28 9.28 0 0 1 2.5-.338c.85 0 1.7.112 2.5.337c1.912-1.3 2.75-1.024 2.75-1.024c.55 1.375.2 2.4.1 2.65c.637.7 1.025 1.587 1.025 2.687c0 3.838-2.337 4.688-4.562 4.938c.362.312.675.912.675 1.85c0 1.337-.013 2.412-.013 2.75c0 .262.188.574.688.474A10.016 10.016 0 0 0 22 12c0-5.525-4.475-10-10-10Z"/>
  </symbol>

  <symbol id="icon-link-external" viewBox="0 0 24 24">
    <path d="M6 8h5v2H6v8h8v-5h2v5a2 2 0 0 1-2 2H6a2 2 0 0 1-2-2v-8a2 2 0 0 1 2-2Zm10.614-2H12V4h8v8h-2V7.442l-5.336 5.336l-1.414-1.414L16.614 6Z"/>
  </symbol>

</svg>
